HIERARCHY
ROOT Hips
{
 OFFSET 0.000000 0.000000 0.000000
 CHANNELS 6 Xposition Yposition Zposition Yrotation Xrotation Zrotation
 JOINT Chest
 {
  OFFSET 0.000000 9.585900 0.002600
  CHANNELS 3 Yrotation Xrotation Zrotation
  JOINT Chest2
  {
   OFFSET 0.000000 9.601200 -0.005300
   CHANNELS 3 Yrotation Xrotation Zrotation
   JOINT Chest3
   {
    OFFSET 0.000000 9.561800 0.000000
    CHANNELS 3 Yrotation Xrotation Zrotation
    JOINT Chest4
    {
     OFFSET 0.000000 9.552100 0.000000
     CHANNELS 3 Yrotation Xrotation Zrotation
     JOINT Neck
     {
      OFFSET 0.000000 14.453000 0.000000
      CHANNELS 3 Yrotation Xrotation Zrotation
      JOINT Head
      {
       OFFSET 0.000000 8.936500 -0.011300
       CHANNELS 3 Yrotation Xrotation Zrotation
       End Site
       {
        OFFSET 0.000000 17.073600 -0.006000
       }
      }
     }
     JOINT RightCollar
     {
      OFFSET -2.921100 9.558500 0.000000
      CHANNELS 3 Yrotation Xrotation Zrotation
      JOINT RightShoulder
      {
       OFFSET -13.519700 0.000000 0.000000
       CHANNELS 3 Yrotation Xrotation Zrotation
       JOINT RightElbow
       {
        OFFSET 0.000000 -29.696600 0.000000
        CHANNELS 3 Yrotation Xrotation Zrotation
        JOINT RightWrist
        {
         OFFSET 0.000000 -24.004700 0.000000
         CHANNELS 3 Yrotation Xrotation Zrotation
         End Site
         {
          OFFSET 0.000000 -17.728500 0.000000
         }
        }
       }
      }
     }
     JOINT LeftCollar
     {
      OFFSET 2.921100 9.558500 0.000000
      CHANNELS 3 Yrotation Xrotation Zrotation
      JOINT LeftShoulder
      {
       OFFSET 13.519700 0.000000 0.000000
       CHANNELS 3 Yrotation Xrotation Zrotation
       JOINT LeftElbow
       {
        OFFSET 0.000000 -29.696600 0.000000
        CHANNELS 3 Yrotation Xrotation Zrotation
        JOINT LeftWrist
        {
         OFFSET 0.000000 -24.004700 0.000000
         CHANNELS 3 Yrotation Xrotation Zrotation
         End Site
         {
          OFFSET 0.000000 -17.728500 0.000000
         }
        }
       }
      }
     }
    }
   }
  }
 }
 JOINT RightHip
 {
  OFFSET -7.771700 -0.012900 -0.001300
  CHANNELS 3 Yrotation Xrotation Zrotation
  JOINT RightKnee
  {
   OFFSET 0.000000 -40.869800 0.001200
   CHANNELS 3 Yrotation Xrotation Zrotation
   JOINT RightAnkle
   {
    OFFSET 0.000000 -39.717900 0.002100
    CHANNELS 3 Yrotation Xrotation Zrotation
    JOINT RightToe
    {
     OFFSET 0.000000 -4.965400 11.033500
     CHANNELS 3 Yrotation Xrotation Zrotation
     End Site
     {
      OFFSET 0.000000 -1.423100 5.872300
     }
    }
   }
  }
 }
 JOINT LeftHip
 {
  OFFSET 7.771700 -0.012900 -0.001300
  CHANNELS 3 Yrotation Xrotation Zrotation
  JOINT LeftKnee
  {
   OFFSET 0.000000 -40.869800 0.001200
   CHANNELS 3 Yrotation Xrotation Zrotation
   JOINT LeftAnkle
   {
    OFFSET 0.000000 -39.717900 0.002100
    CHANNELS 3 Yrotation Xrotation Zrotation
    JOINT LeftToe
    {
     OFFSET 0.000000 -4.965400 11.033500
     CHANNELS 3 Yrotation Xrotation Zrotation
     End Site
     {
      OFFSET 0.000000 -1.423100 5.872300
     }
    }
   }
  }
 }
}
MOTION
Frames: 15
Frame Time: 0.008333
-24.936966 58.016706 13.450253 177.653162 -50.447047 -3.487312 3.314554 21.763007 3.335819 1.683605 12.465117 1.735465 2.194227 15.567043 2.238565 1.669641 12.469447 1.743212 3.706168 17.440664 2.132689 6.095497 -3.413160 2.715044 1.368037 6.922745 -0.240920 -27.721353 -13.798399 7.075224 -87.091933 -54.318734 95.040855 -7.061485 -17.588160 -19.307617 -7.646285 4.370749 1.089127 19.034411 -16.547769 -6.740310 77.439985 -56.331402 -72.627595 14.269585 -19.872428 14.916063 1.843262 -21.243232 -3.339004 -32.168882 73.025980 -35.944757 6.561423 -12.741546 10.940797 0.021801 0.018632 0.024786 -4.108279 -18.631833 6.821270 85.910166 83.988678 85.615465 0.083071 -22.212261 -16.229651 -0.039961 0.038027 -0.013573
-24.939868 58.015838 13.448503 177.665740 -50.448859 -3.487380 3.317008 21.761840 3.331654 1.701769 12.458412 1.735875 2.177525 15.572110 2.242208 1.673110 12.466555 1.742031 3.643528 17.374862 2.150798 5.971538 -3.540456 2.769435 1.393003 6.873591 -0.230441 -27.546574 -13.876488 6.965612 -87.507024 -55.648651 95.107839 -6.565066 -17.153962 -18.871465 -7.677950 4.298190 1.062575 18.822815 -16.585649 -6.601138 76.775510 -57.700313 -71.965173 13.522075 -19.529531 14.499917 1.850977 -21.241845 -3.341423 -32.207288 73.029528 -35.986500 6.546421 -12.757339 10.948424 0.034264 0.011755 0.026392 -4.105868 -18.632163 6.814229 85.948158 83.988156 85.649381 0.074722 -22.216652 -16.220543 -0.041294 0.039248 -0.012440
-24.939807 58.016749 13.445469 177.688191 -50.461646 -3.511874 3.334397 21.763619 3.351759 1.689505 12.463174 1.734361 2.179639 15.572712 2.242604 1.691547 12.463662 1.733674 3.567245 17.309388 2.182600 5.847919 -3.666964 2.823504 1.405109 6.833284 -0.211538 -27.378258 -13.959507 6.867178 -87.944972 -57.021175 95.197481 -6.045228 -16.720301 -18.478931 -7.722620 4.230450 1.050259 18.615089 -16.625281 -6.465944 76.091581 -59.001870 -71.309388 12.681048 -19.195107 14.098543 1.856408 -21.224926 -3.320769 -32.278614 73.020542 -36.048938 6.538040 -12.771071 10.951077 0.056741 0.006539 0.030797 -4.091457 -18.617544 6.827210 85.908807 84.000646 85.628034 0.070080 -22.221605 -16.216770 -0.032791 0.040117 -0.008048
-24.939873 58.016374 13.443223 177.693873 -50.464380 -3.522008 3.336968 21.764514 3.359608 1.694143 12.461084 1.732454 2.188631 15.570926 2.242207 1.689610 12.464828 1.736056 3.531663 17.277003 2.196182 5.700421 -3.829750 2.885276 1.428144 6.787811 -0.208762 -27.210433 -14.034959 6.772483 -88.406922 -58.445648 95.316702 -5.508149 -16.291711 -18.126679 -7.743106 4.162289 1.029268 18.413787 -16.666825 -6.341999 75.408094 -60.246817 -70.669250 11.754191 -18.844377 13.713537 1.860442 -21.220222 -3.309104 -32.309621 73.017661 -36.079926 6.554221 -12.788301 10.951795 0.047520 0.009158 0.032541 -4.081202 -18.615800 6.839642 85.914512 84.007566 85.641451 0.057762 -22.224760 -16.209889 -0.021610 0.039669 -0.008106
-24.941994 58.016178 13.440279 177.700663 -50.468781 -3.519528 3.337576 21.764062 3.350076 1.689866 12.464974 1.736075 2.192294 15.569777 2.242091 1.695927 12.460994 1.732260 3.455347 17.193285 2.216236 5.591933 -3.935745 2.933576 1.444394 6.744872 -0.207925 -27.044903 -14.105282 6.681067 -88.900962 -59.926503 95.475895 -4.954951 -15.863015 -17.813953 -7.755224 4.101220 1.012340 18.217024 -16.714188 -6.227481 74.650676 -61.468058 -69.942798 10.806264 -18.482802 13.306358 1.862730 -21.214507 -3.313126 -32.304418 73.027706 -36.092636 6.568430 -12.810660 10.964953 0.026943 0.009048 0.030246 -4.066710 -18.614152 6.840872 85.951451 84.012359 85.677255 0.041854 -22.226980 -16.197114 -0.022394 0.038403 -0.006017
-24.943217 58.016126 13.437001 177.718242 -50.473768 -3.529638 3.348823 21.757220 3.355888 1.678882 12.471248 1.736572 2.187569 15.571997 2.243437 1.696040 12.459336 1.730591 3.384403 17.105674 2.229891 5.482744 -4.039959 2.982415 1.494277 6.647612 -0.228153 -26.915527 -14.116532 6.585522 -89.445019 -61.474642 95.691418 -4.398257 -15.423461 -17.539174 -7.756015 4.042709 0.993592 18.024826 -16.768002 -6.117062 73.736153 -62.681184 -69.036331 9.889152 -18.138571 12.843549 1.868096 -21.207497 -3.310741 -32.349105 73.023985 -36.129403 6.559231 -12.819342 10.963377 0.031577 0.002869 0.033259 -4.068285 -18.610820 6.842904 85.993632 84.016895 85.716379 0.035714 -22.224832 -16.195200 -0.022460 0.034230 -0.000036
-24.944739 58.015458 13.433863 177.727551 -50.475145 -3.530788 3.353817 21.752698 3.355401 1.678160 12.468633 1.733716 2.188608 15.569991 2.241635 1.691696 12.463205 1.735000 3.328414 17.036106 2.241172 5.361365 -4.162629 3.035204 1.511551 6.600168 -0.236584 -26.766023 -14.174057 6.502707 -90.050046 -63.095946 95.984624 -3.861141 -14.974483 -17.298212 -7.757118 4.018679 0.988693 17.853167 -16.847298 -6.030292 72.645909 -63.893685 -67.957873 9.022008 -17.827224 12.346348 1.874160 -21.204493 -3.306841 -32.383398 73.027180 -36.171445 6.542402 -12.835865 10.973343 0.026302 -0.006430 0.030201 -4.050616 -18.612214 6.848740 85.981252 84.029505 85.707646 0.020302 -22.224072 -16.183465 -0.017366 0.032556 0.005043
-24.946260 58.014989 13.430248 177.739831 -50.479150 -3.533722 3.355803 21.750505 3.353738 1.683258 12.468371 1.734780 2.191381 15.568158 2.241406 1.693999 12.461583 1.734822 3.272444 16.986908 2.256222 5.230802 -4.305336 3.088005 1.511671 6.556601 -0.242754 -26.627749 -14.226746 6.426215 -90.691445 -64.748273 96.350026 -3.326531 -14.530663 -17.079285 -7.762079 3.955331 0.976013 17.677222 -16.886104 -5.918280 71.387991 -65.107469 -66.753815 8.204208 -17.541991 11.850550 1.878940 -21.198566 -3.308275 -32.428810 73.033067 -36.218722 6.534111 -12.855696 10.976891 0.025392 -0.004284 0.033854 -4.033863 -18.610723 6.851669 85.978854 84.043230 85.712032 0.007628 -22.225312 -16.173838 -0.014024 0.030481 0.011139
-24.948718 58.014304 13.426438 177.756497 -50.483035 -3.534596 3.352334 21.748592 3.346548 1.694413 12.457011 1.730281 2.180129 15.574223 2.242932 1.693560 12.459651 1.732383 3.256471 16.978893 2.272371 5.079656 -4.489331 3.142634 1.518140 6.519652 -0.250689 -26.502782 -14.275093 6.359781 -91.335199 -66.376351 96.747119 -2.764457 -14.097616 -16.841077 -7.752808 3.894357 0.970899 17.511182 -16.916833 -5.812104 69.978656 -66.318814 -65.452584 7.435587 -17.261574 11.358000 1.892229 -21.195891 -3.317154 -32.486346 73.045899 -36.271067 6.523579 -12.872166 10.975319 0.028302 -0.012311 0.038857 -4.022122 -18.609725 6.847615 85.990156 84.059066 85.722788 0.003794 -22.227341 -16.160430 -0.015573 0.031459 0.012285
-24.951465 58.012800 13.423055 177.767264 -50.482620 -3.530178 3.352343 21.742427 3.340286 1.688603 12.458848 1.727330 2.185235 15.566579 2.236158 1.694552 12.457198 1.730330 3.158840 16.852892 2.289068 5.005233 -4.551630 3.182978 1.514940 6.485703 -0.259926 -26.388334 -14.318196 6.301813 -91.984813 -67.961551 97.166766 -2.172616 -13.666221 -16.552870 -7.747690 3.848371 0.974098 17.358514 -16.953713 -5.717558 68.432406 -67.505337 -64.059358 6.709604 -16.984264 10.851339 1.900870 -21.199043 -3.327102 -32.510905 73.056178 -36.297730 6.515661 -12.879926 10.977271 0.023586 -0.026238 0.033943 -4.009639 -18.613755 6.845109 86.001348 84.069861 85.725006 -0.004207 -22.228300 -16.137850 -0.014970 0.033072 0.009379
-24.954174 58.010786 13.419965 177.779019 -50.479738 -3.528305 3.348858 21.734997 3.334072 1.686679 12.459991 1.726104 2.192051 15.558323 2.232427 1.694872 12.453980 1.727775 3.086892 16.765848 2.303991 4.907337 -4.653190 3.225535 1.502891 6.453227 -0.272162 -26.276939 -14.356169 6.247179 -92.672982 -69.502577 97.641419 -1.548662 -13.224770 -16.220255 -7.744097 3.802534 0.972060 17.222717 -16.985022 -5.621966 66.770315 -68.622247 -62.599771 5.992485 -16.725258 10.331566 1.906906 -21.203558 -3.333921 -32.537771 73.067263 -36.326514 6.501403 -12.897674 10.969610 0.027904 -0.025129 0.042962 -4.000405 -18.620135 6.840851 86.018517 84.078683 85.745281 -0.016455 -22.230741 -16.130356 -0.008876 0.033147 0.010696
-24.959196 58.009491 13.415924 177.794157 -50.484553 -3.516834 3.333093 21.739564 3.311149 1.697934 12.442909 1.721522 2.189420 15.562742 2.234396 1.700537 12.434942 1.715991 3.028142 16.716375 2.331068 4.800437 -4.773740 3.267486 1.484583 6.438652 -0.273378 -26.164087 -14.391952 6.195807 -93.413901 -70.996513 98.183379 -0.873342 -12.763432 -15.847300 -7.745010 3.791246 0.979377 17.117232 -17.022666 -5.536214 65.058947 -69.641915 -61.148614 5.250961 -16.464761 9.803614 1.911061 -21.198178 -3.353256 -32.539520 73.084067 -36.349407 6.493454 -12.921600 10.983865 0.019337 -0.027669 0.038689 -3.988841 -18.618486 6.824780 86.072811 84.084056 85.787857 -0.019584 -22.239146 -16.113213 -0.017131 0.038697 0.010523
-24.961013 58.008039 13.412429 177.795991 -50.488616 -3.516420 3.334252 21.735348 3.305937 1.697107 12.448408 1.725094 2.199278 15.537587 2.222323 1.695878 12.446146 1.723328 3.002121 16.691465 2.343788 4.672698 -4.932553 3.311519 1.475704 6.419975 -0.281369 -26.053103 -14.441721 6.149693 -94.216821 -72.447588 98.798001 -0.118323 -12.268125 -15.434372 -7.737219 3.746011 0.971906 17.027163 -17.038014 -5.442819 63.367131 -70.561914 -59.772001 4.478028 -16.180070 9.256558 1.915838 -21.193632 -3.350607 -32.557831 73.088945 -36.376324 6.494380 -12.940255 10.984324 0.011709 -0.025689 0.039928 -3.976706 -18.617280 6.827489 86.140440 84.088454 85.856473 -0.025380 -22.245250 -16.105924 -0.013143 0.037694 0.010269
-24.963978 58.006677 13.408828 177.811107 -50.494046 -3.521280 3.330795 21.730991 3.301820 1.696107 12.446235 1.723703 2.196514 15.536985 2.218585 1.694298 12.443628 1.720897 2.978220 16.665927 2.357451 4.549930 -5.085997 3.352462 1.472238 6.393292 -0.292084 -25.941901 -14.484771 6.107502 -95.130290 -73.869251 99.528736 0.729583 -11.728501 -14.974929 -7.730930 3.685302 0.960860 16.950277 -17.030453 -5.340277 61.703634 -71.394235 -58.481398 3.693853 -15.876783 8.682695 1.920271 -21.187609 -3.354131 -32.603628 73.092055 -36.425284 6.498195 -12.956789 10.987739 0.008976 -0.026940 0.039232 -3.974829 -18.614953 6.820932 86.180461 84.091470 85.901786 -0.033909 -22.247594 -16.106067 -0.002775 0.034432 0.013492
-24.967951 58.005087 13.405580 177.825750 -50.497898 -3.521608 3.325975 21.728868 3.293363 1.694133 12.443775 1.720624 2.194352 15.536796 2.217938 1.694301 12.437999 1.717376 2.925116 16.603690 2.367228 4.455913 -5.194504 3.387677 1.468718 6.357464 -0.304615 -25.826595 -14.519426 6.063714 -96.204041 -75.267911 100.424808 1.683243 -11.142242 -14.447488 -7.733878 3.642051 0.951312 16.896360 -17.028814 -5.246769 60.089434 -72.146925 -57.295228 2.902201 -15.538778 8.070467 1.921365 -21.182978 -3.359525 -32.645172 73.094829 -36.476438 6.504774 -12.974663 10.992918 0.003510 -0.025577 0.039793 -3.977374 -18.612785 6.810883 86.231834 84.095805 85.946959 -0.038096 -22.253150 -16.100085 -0.002802 0.034942 0.014065
